HIERARCHY
ROOT root
{
	OFFSET 0.000000 0.000000 0.000000
	CHANNELS 6 Xposition Yposition Zposition Zrotation Yrotation Xrotation
	JOINT lhip
	{
		OFFSET 0.058581 -0.082280 -0.017664
		CHANNELS 3 Zrotation Yrotation Xrotation
		JOINT lknee
		{
			OFFSET 0.043451 -0.386469 0.008037
			CHANNELS 3 Zrotation Yrotation Xrotation
			JOINT lankle
			{
				OFFSET -0.014790 -0.426874 -0.037428
				CHANNELS 3 Zrotation Yrotation Xrotation
				JOINT ltoe
				{
					OFFSET 0.041054 -0.060286 0.122042
					CHANNELS 3 Zrotation Yrotation Xrotation
					End Site
					{
						OFFSET 0.000000 0.000000 0.000000
					}
				}
			}
		}
	}
	JOINT rhip
	{
		OFFSET -0.060310 -0.090513 -0.013543
		CHANNELS 3 Zrotation Yrotation Xrotation
		JOINT rknee
		{
			OFFSET -0.043257 -0.383688 -0.004843
			CHANNELS 3 Zrotation Yrotation Xrotation
			JOINT rankle
			{
				OFFSET 0.019056 -0.420046 -0.034562
				CHANNELS 3 Zrotation Yrotation Xrotation
				JOINT rtoe
				{
					OFFSET -0.034840 -0.062106 0.130323
					CHANNELS 3 Zrotation Yrotation Xrotation
					End Site
					{
						OFFSET 0.000000 0.000000 0.000000
					}
				}
			}
		}
	}
	JOINT lowerback
	{
		OFFSET 0.004439 0.124404 -0.038385
		CHANNELS 3 Zrotation Yrotation Xrotation
		JOINT upperback
		{
			OFFSET 0.004488 0.137956 0.026820
			CHANNELS 3 Zrotation Yrotation Xrotation
			JOINT chest
			{
				OFFSET -0.002265 0.056032 0.002855
				CHANNELS 3 Zrotation Yrotation Xrotation
				JOINT lowerneck
				{
					OFFSET -0.013390 0.211636 -0.033468
					CHANNELS 3 Zrotation Yrotation Xrotation
					JOINT upperneck
					{
						OFFSET 0.010113 0.088937 0.050410
						CHANNELS 3 Zrotation Yrotation Xrotation
						End Site
						{
							OFFSET 0.000000 0.000000 0.000000
						}
					}
				}
				JOINT lclavicle
				{
					OFFSET 0.071702 0.114000 -0.018898
					CHANNELS 3 Zrotation Yrotation Xrotation
					JOINT lshoulder
					{
						OFFSET 0.122921 0.045205 -0.019046
						CHANNELS 3 Zrotation Yrotation Xrotation
						JOINT lelbow
						{
							OFFSET 0.255332 -0.015649 -0.022946
							CHANNELS 3 Zrotation Yrotation Xrotation
							JOINT lwrist
							{
								OFFSET 0.265709 0.012698 -0.007375
								CHANNELS 3 Zrotation Yrotation Xrotation
								End Site
								{
									OFFSET 0.000000 0.000000 0.000000
								}
							}
						}
					}
				}
				JOINT rclavicle
				{
					OFFSET -0.082954 0.112472 -0.023707
					CHANNELS 3 Zrotation Yrotation Xrotation
					JOINT rshoulder
					{
						OFFSET -0.113228 0.046853 -0.008472
						CHANNELS 3 Zrotation Yrotation Xrotation
						JOINT relbow
						{
							OFFSET -0.260127 -0.014369 -0.031269
							CHANNELS 3 Zrotation Yrotation Xrotation
							JOINT rwrist
							{
								OFFSET -0.269108 0.006794 -0.006027
								CHANNELS 3 Zrotation Yrotation Xrotation
								End Site
								{
									OFFSET 0.000000 0.000000 0.000000
								}
							}
						}
					}
				}
			}
		}
	}
}
MOTION
Frames: 10
Frame Time: 0.033333
-0.065788 0.158888 1.003257 7.234775 0.053797 93.436896 -4.609186 -7.319148 -9.616814 -3.471397 -5.881968 12.241003 4.348464 10.569432 -14.549342 0.000000 -0.000000 0.000000 0.365781 0.800705 -12.270711 1.047340 -4.545719 13.429441 1.726080 -5.526479 -6.239171 0.000000 -0.000000 0.000000 -0.225682 5.824411 0.346520 4.769654 2.419374 13.016419 -0.811482 1.733666 -4.886437 3.390199 0.234179 16.049556 0.059084 -11.847794 -4.356870 -8.065794 25.485172 -3.335164 -37.340755 -2.222474 -3.076672 154.576809 -32.653475 -125.693746 -24.661218 -13.905235 13.593254 18.657447 -2.078335 1.995070 53.257614 13.010134 14.582021 -39.136811 68.174899 -13.100309 16.126044 5.970338 6.135902 
-0.063211 0.165406 1.001770 7.264737 0.180399 93.129544 -4.873081 -8.890416 -11.907581 -4.301120 -6.717571 17.660219 4.234965 10.615107 -17.205532 0.000000 -0.000000 0.000000 0.283706 1.568619 -13.711290 0.790652 -4.314493 16.107745 1.838117 -6.514212 -6.613921 0.000000 -0.000000 0.000000 0.369221 5.856549 1.625674 4.881524 2.551420 13.266195 -0.765434 1.671513 -4.782538 3.010219 -0.242122 15.500043 -0.202427 -11.573699 -4.561895 -8.012713 25.632053 -3.530228 -38.049151 -2.567544 -2.761610 154.534285 -32.413412 -124.942019 -24.231073 -14.036142 12.891210 17.681477 -1.887674 1.581820 53.502058 13.589688 14.982600 -41.797913 68.331058 -15.231265 15.417582 6.315375 4.350587 
-0.060108 0.174050 0.998888 6.881316 0.321406 92.211794 -5.048572 -10.401649 -13.800746 -6.056645 -6.887058 23.312925 4.959626 10.619455 -17.269178 0.000000 -0.000000 0.000000 0.129072 2.472706 -15.765565 0.507871 -4.093670 20.856169 1.507169 -7.224631 -7.731518 0.000000 -0.000000 0.000000 1.005041 5.765216 4.192064 4.849844 2.981827 13.147653 -0.696910 1.735617 -4.629224 3.122625 -0.472558 14.940594 -0.426831 -11.511748 -5.112516 -8.030545 25.685458 -4.222131 -38.182178 -2.301585 -2.674119 154.508927 -31.899226 -124.494628 -23.150753 -14.248458 11.814040 17.299471 -1.283642 1.073863 53.044706 14.354288 15.190961 -43.800461 67.863963 -17.665777 14.408709 6.652814 2.983165 
-0.056031 0.187396 0.988210 5.473795 1.078981 90.110322 -4.690495 -10.940774 -15.096991 -6.842501 -4.776072 27.918878 7.169909 13.432487 -17.005327 0.000000 -0.000000 0.000000 0.141856 4.312727 -20.298283 0.899218 -3.689535 31.922255 1.792081 -7.685857 -9.780837 0.000000 -0.000000 0.000000 1.917576 5.020165 8.875826 5.059039 4.248945 13.051819 -0.593856 2.168745 -4.314004 3.991020 0.417466 14.199240 -1.127995 -12.256949 -6.346400 -6.942450 26.215434 -4.988475 -37.988383 -1.779590 -3.442987 153.975303 -30.865629 -124.553153 -21.432141 -14.765504 9.652603 17.208090 0.021929 0.689888 52.447795 15.821818 15.201067 -45.613716 65.831559 -20.276229 13.094337 7.031793 0.478570 
-0.054602 0.191462 0.982431 4.824819 1.287917 89.438250 -4.683253 -10.383231 -15.267917 -7.076542 -4.129397 29.091102 7.930189 13.881286 -18.168301 0.000000 -0.000000 0.000000 -0.173011 4.879653 -22.206160 1.408366 -3.727555 36.127319 2.217675 -7.369795 -10.253300 0.000000 -0.000000 0.000000 2.017085 4.583773 10.461718 5.135784 4.790500 12.641413 -0.561227 2.411464 -3.995986 4.253578 0.933168 14.203358 -1.410758 -12.598926 -6.946587 -6.381293 26.556038 -5.279381 -37.560110 -1.639223 -3.789294 153.470873 -30.574991 -124.434474 -20.749274 -15.065124 8.631001 17.300430 0.368652 0.577943 52.465603 16.254867 15.225751 -45.263378 64.936485 -20.217545 12.344381 7.248423 -0.463102 
-0.052159 0.200189 0.967643 3.717433 1.618305 88.814440 -4.801321 -9.005926 -16.980553 -7.260260 -2.853594 32.418606 9.704329 14.806333 -20.438005 0.000000 -0.000000 0.000000 -1.127716 5.401504 -26.773023 2.642655 -4.010729 44.220794 3.106780 -6.342792 -11.443909 0.000000 -0.000000 0.000000 2.064344 3.900904 12.814278 5.271004 5.709424 11.561371 -0.483982 2.901381 -3.309844 4.246001 1.926073 14.120697 -1.825008 -13.123259 -7.593483 -5.183022 27.275988 -5.900456 -36.343943 -2.096882 -4.590618 151.940210 -30.322995 -123.995108 -20.123612 -15.447782 6.347163 17.666003 0.380936 0.041574 53.098447 16.678740 15.265150 -43.033693 62.807589 -18.217142 11.371350 7.494198 -2.084605 
-0.049992 0.209214 0.953019 2.922534 1.544950 88.384521 -4.738287 -8.975871 -19.172759 -7.899721 -1.504226 35.734848 10.959867 15.879496 -21.417823 0.000000 -0.000000 0.000000 -2.145971 4.575862 -30.457839 3.941791 -3.728924 50.612880 3.824735 -4.303014 -14.335961 0.000000 -0.000000 0.000000 2.305021 4.161150 14.595037 5.151418 6.120451 11.103642 -0.405748 3.205000 -2.715741 3.992699 2.816911 13.302856 -2.276818 -13.965869 -7.607094 -4.282500 27.217672 -6.368781 -35.422250 -3.463559 -5.461767 149.966079 -30.245320 -123.513957 -20.753727 -15.341271 4.944095 18.314132 0.365291 0.018078 54.000489 15.976691 14.621494 -41.924498 59.967758 -17.555596 12.424610 6.952873 -1.836590 
-0.047616 0.217196 0.943590 2.626485 0.852728 87.572878 -5.053726 -9.087115 -20.024362 -8.596273 -0.165837 37.343099 11.436121 15.982993 -21.501047 0.000000 -0.000000 0.000000 -3.193504 2.561668 -31.832812 4.379567 -3.178221 55.424686 3.002255 -4.124516 -17.458230 0.000000 -0.000000 0.000000 2.353832 5.180029 16.278691 5.133412 6.312844 11.804339 -0.200228 2.967583 -2.829931 3.549896 3.245168 12.810086 -2.973190 -14.938326 -8.057350 -3.969905 26.507121 -6.579320 -35.106851 -5.183811 -5.997268 148.262322 -30.116848 -123.034622 -22.092696 -14.901970 4.795717 18.821350 -0.050374 -0.163002 55.167533 13.986420 14.390173 -40.115838 55.810881 -16.035917 13.898568 6.052531 -1.305967 
-0.044898 0.224919 0.941154 2.869360 0.278491 87.357882 -5.627190 -8.621045 -20.377285 -8.982972 -0.141746 37.149949 11.389296 15.568784 -20.864173 0.000000 -0.000000 0.000000 -3.918301 0.297706 -32.180273 3.219107 -3.647813 59.264657 2.375786 -6.601788 -17.797462 0.000000 -0.000000 0.000000 2.500654 5.610386 17.360731 5.082583 6.247694 11.723532 0.004735 2.739416 -2.581969 2.711087 3.381816 13.017183 -3.469918 -15.036740 -8.560410 -4.293276 25.916786 -6.681580 -34.878524 -6.073807 -6.373874 147.862515 -30.209326 -123.360308 -22.290608 -14.393140 5.245329 19.249078 -0.822523 -0.374088 56.528651 11.205076 13.964201 -36.078598 51.035913 -12.708067 14.665484 5.177572 -1.405816 
-0.042487 0.232158 0.945150 3.027316 0.066173 88.211302 -5.696954 -8.390601 -20.831723 -9.014847 -0.437704 35.135868 11.150239 14.737077 -19.264090 0.000000 -0.000000 0.000000 -4.347801 -0.977583 -31.987029 2.016164 -4.904070 61.989652 2.203179 -7.916515 -16.120321 0.000000 -0.000000 0.000000 2.730474 5.426687 17.094458 4.932883 5.993393 11.637681 -0.069049 2.678180 -2.468109 2.082638 3.954496 13.735846 -3.618634 -15.183906 -9.085415 -4.803204 26.432077 -6.919157 -34.955610 -6.246113 -5.905068 148.335986 -30.385777 -124.359692 -23.072370 -13.928896 5.832794 19.482499 -2.303975 -0.654381 58.381312 7.863951 14.090096 -31.792107 45.794288 -9.007668 16.943739 4.158303 -2.879065 
